# xmcd CD database file
#
# Track frame offsets:
#	150
#	9564
#	14340
#	30198
#	56120
#	83900
#	110604
#	130198
#	151456
#	178229
#	186633
#	206770
#	221051
#	237560
#	258348
#	263383
#
# Disc length: 3950 seconds
#
# Revision: 0
# Processed by: cddbd v1.5.2PL0 Copyright (c) Steve Scherf et al.
# Submitted via: CDex 1.51
#
DISCID=e30f6c10
DTITLE=The Osland Saxophone Quartet - Commission: Impossible Disc 2
DYEAR=2006
DGENRE=Jazz
TTITLE0=Diffusions for Saxophone Quartet I: Allegro
TTITLE1=Diffusions for Saxophone Quartet II: Waltz
TTITLE2=Diffusions for Saxophone Quartet III: Swing
TTITLE3=Diffusions for Saxophone Quartet IV: Hip-Hop
TTITLE4=Reconciliation Suite I: Incitement to Be-Bop
TTITLE5=Reconciliation Suite II: Prelude and Deluge
TTITLE6=Saxophone Quartet #2 I: Montuno
TTITLE7=Saxophone Quartet #2 II: Gently
TTITLE8=Saxophone Quartet #2 III: Mosaic
TTITLE9=1000 Bars of Blue: Intro
TTITLE10=1000 Bars of Blue 1: Twenty
TTITLE11=1000 Bars of Blue 2: Waltz
TTITLE12=1000 Bars of Blue 3: Ballad
TTITLE13=1000 Bars of Blue 4: Trance
TTITLE14=1000 Bars of Blue: Outro
TTITLE15=Kentucky Roastup
EXTD=YEAR: 2006
EXTT0=
EXTT1=
EXTT2=
EXTT3=
EXTT4=
EXTT5=
EXTT6=
EXTT7=
EXTT8=
EXTT9=
EXTT10=
EXTT11=
EXTT12=
EXTT13=
EXTT14=
EXTT15=
PLAYORDER=
